<svg version="1.1" xmlns="http://www.w3.org/2000/svg" xmlns:xlink="http://www.w3.org/1999/xlink" width="691" height="595"><defs/><g><g transform="translate(-46,-46) scale(1,1)"><rect fill="#C0C0C0" stroke="none" x="143" y="119" width="95" height="119" opacity="0.2"/></g><g transform="translate(-46,-46) scale(1,1)"><rect fill="#ffffff" stroke="none" x="136" y="112" width="95" height="119"/></g><g transform="translate(-46,-46) scale(1,1)"><path fill="none" stroke="#000000" d="M 136 112 L 231 112 L 231 231 L 136 231 L 136 112 Z Z" stroke-miterlimit="10"/></g><g transform="translate(-46,-46) scale(1,1)"><path fill="none" stroke="#000000" d="M 136 137 L 231 137" stroke-miterlimit="10"/></g><g transform="translate(-46,-46) scale(1,1)"><path fill="none" stroke="#000000" d="M 136 147 L 231 147" stroke-miterlimit="10"/></g><g transform="translate(-46,-46) scale(1,1)"><g><path fill="none" stroke="none"/><text fill="#000000" stroke="none" font-family="Arial" font-size="13px" font-style="normal" font-weight="bold" text-decoration="none" x="167.24365234375" y="131.5">Entity</text></g></g><g transform="translate(-46,-46) scale(1,1)"><rect fill="#C0C0C0" stroke="none" x="63" y="319" width="96" height="135" opacity="0.2"/></g><g transform="translate(-46,-46) scale(1,1)"><rect fill="#ffffff" stroke="none" x="56" y="312" width="96" height="135"/></g><g transform="translate(-46,-46) scale(1,1)"><path fill="none" stroke="#000000" d="M 56 312 L 152 312 L 152 447 L 56 447 L 56 312 Z Z" stroke-miterlimit="10"/></g><g transform="translate(-46,-46) scale(1,1)"><path fill="none" stroke="#000000" d="M 56 337 L 152 337" stroke-miterlimit="10"/></g><g transform="translate(-46,-46) scale(1,1)"><path fill="none" stroke="#000000" d="M 56 347 L 152 347" stroke-miterlimit="10"/></g><g transform="translate(-46,-46) scale(1,1)"><g><path fill="none" stroke="none"/><text fill="#000000" stroke="none" font-family="Arial" font-size="13px" font-style="normal" font-weight="bold" text-decoration="none" x="80.52001953125" y="331.5">Monster</text></g></g><g transform="translate(-46,-46) scale(1,1)"><rect fill="#C0C0C0" stroke="none" x="223" y="319" width="104" height="136" opacity="0.2"/></g><g transform="translate(-46,-46) scale(1,1)"><rect fill="#ffffff" stroke="none" x="216" y="312" width="104" height="136"/></g><g transform="translate(-46,-46) scale(1,1)"><path fill="none" stroke="#000000" d="M 216 312 L 320 312 L 320 448 L 216 448 L 216 312 Z Z" stroke-miterlimit="10"/></g><g transform="translate(-46,-46) scale(1,1)"><path fill="none" stroke="#000000" d="M 216 337 L 320 337" stroke-miterlimit="10"/></g><g transform="translate(-46,-46) scale(1,1)"><path fill="none" stroke="#000000" d="M 216 347 L 320 347" stroke-miterlimit="10"/></g><g transform="translate(-46,-46) scale(1,1)"><g><path fill="none" stroke="none"/><text fill="#000000" stroke="none" font-family="Arial" font-size="13px" font-style="normal" font-weight="bold" text-decoration="none" x="249.575927734375" y="331.5">Player</text></g></g><g transform="translate(-46,-46) scale(1,1)"><rect fill="#C0C0C0" stroke="none" x="447" y="319" width="103" height="136" opacity="0.2"/></g><g transform="translate(-46,-46) scale(1,1)"><rect fill="#ffffff" stroke="none" x="440" y="312" width="103" height="136"/></g><g transform="translate(-46,-46) scale(1,1)"><path fill="none" stroke="#000000" d="M 440 312 L 543 312 L 543 448 L 440 448 L 440 312 Z Z" stroke-miterlimit="10"/></g><g transform="translate(-46,-46) scale(1,1)"><path fill="none" stroke="#000000" d="M 440 337 L 543 337" stroke-miterlimit="10"/></g><g transform="translate(-46,-46) scale(1,1)"><path fill="none" stroke="#000000" d="M 440 347 L 543 347" stroke-miterlimit="10"/></g><g transform="translate(-46,-46) scale(1,1)"><g><path fill="none" stroke="none"/><text fill="#000000" stroke="none" font-family="Arial" font-size="13px" font-style="normal" font-weight="bold" text-decoration="none" x="476.32275390625" y="331.5">State</text></g></g><g transform="translate(-46,-46) scale(1,1)"><rect fill="#C0C0C0" stroke="none" x="631" y="63" width="103" height="104" opacity="0.2"/></g><g transform="translate(-46,-46) scale(1,1)"><rect fill="#ffffff" stroke="none" x="624" y="56" width="103" height="104"/></g><g transform="translate(-46,-46) scale(1,1)"><path fill="none" stroke="#000000" d="M 624 56 L 727 56 L 727 160 L 624 160 L 624 56 Z Z" stroke-miterlimit="10"/></g><g transform="translate(-46,-46) scale(1,1)"><path fill="none" stroke="#000000" d="M 624 81 L 727 81" stroke-miterlimit="10"/></g><g transform="translate(-46,-46) scale(1,1)"><path fill="none" stroke="#000000" d="M 624 91 L 727 91" stroke-miterlimit="10"/></g><g transform="translate(-46,-46) scale(1,1)"><g><path fill="none" stroke="none"/><text fill="#000000" stroke="none" font-family="Arial" font-size="13px" font-style="normal" font-weight="bold" text-decoration="none" x="649.8427734375" y="75.5">IdleState</text></g></g><g transform="translate(-46,-46) scale(1,1)"><rect fill="#C0C0C0" stroke="none" x="631" y="207" width="103" height="111" opacity="0.2"/></g><g transform="translate(-46,-46) scale(1,1)"><rect fill="#ffffff" stroke="none" x="624" y="200" width="103" height="111"/></g><g transform="translate(-46,-46) scale(1,1)"><path fill="none" stroke="#000000" d="M 624 200 L 727 200 L 727 311 L 624 311 L 624 200 Z Z" stroke-miterlimit="10"/></g><g transform="translate(-46,-46) scale(1,1)"><path fill="none" stroke="#000000" d="M 624 225 L 727 225" stroke-miterlimit="10"/></g><g transform="translate(-46,-46) scale(1,1)"><path fill="none" stroke="#000000" d="M 624 235 L 727 235" stroke-miterlimit="10"/></g><g transform="translate(-46,-46) scale(1,1)"><g><path fill="none" stroke="none"/><text fill="#000000" stroke="none" font-family="Arial" font-size="13px" font-style="normal" font-weight="bold" text-decoration="none" x="644.42822265625" y="219.5">MoveState</text></g></g><g transform="translate(-46,-46) scale(1,1)"><rect fill="#C0C0C0" stroke="none" x="631" y="367" width="103" height="111" opacity="0.2"/></g><g transform="translate(-46,-46) scale(1,1)"><rect fill="#ffffff" stroke="none" x="624" y="360" width="103" height="111"/></g><g transform="translate(-46,-46) scale(1,1)"><path fill="none" stroke="#000000" d="M 624 360 L 727 360 L 727 471 L 624 471 L 624 360 Z Z" stroke-miterlimit="10"/></g><g transform="translate(-46,-46) scale(1,1)"><path fill="none" stroke="#000000" d="M 624 385 L 727 385" stroke-miterlimit="10"/></g><g transform="translate(-46,-46) scale(1,1)"><path fill="none" stroke="#000000" d="M 624 395 L 727 395" stroke-miterlimit="10"/></g><g transform="translate(-46,-46) scale(1,1)"><g><path fill="none" stroke="none"/><text fill="#000000" stroke="none" font-family="Arial" font-size="13px" font-style="normal" font-weight="bold" text-decoration="none" x="642.260498046875" y="379.5">AttackState</text></g></g><g transform="translate(-46,-46) scale(1,1)"><rect fill="#C0C0C0" stroke="none" x="631" y="527" width="103" height="111" opacity="0.2"/></g><g transform="translate(-46,-46) scale(1,1)"><rect fill="#ffffff" stroke="none" x="624" y="520" width="103" height="111"/></g><g transform="translate(-46,-46) scale(1,1)"><path fill="none" stroke="#000000" d="M 624 520 L 727 520 L 727 631 L 624 631 L 624 520 Z Z" stroke-miterlimit="10"/></g><g transform="translate(-46,-46) scale(1,1)"><path fill="none" stroke="#000000" d="M 624 545 L 727 545" stroke-miterlimit="10"/></g><g transform="translate(-46,-46) scale(1,1)"><path fill="none" stroke="#000000" d="M 624 555 L 727 555" stroke-miterlimit="10"/></g><g transform="translate(-46,-46) scale(1,1)"><g><path fill="none" stroke="none"/><text fill="#000000" stroke="none" font-family="Arial" font-size="13px" font-style="normal" font-weight="bold" text-decoration="none" x="640.813232421875" y="539.5">ReturnState</text></g></g><g transform="translate(-46,-46) scale(1,1)"><path fill="none" stroke="#000000" d="M 160 232 L 130 311" stroke-miterlimit="10"/></g><g transform="translate(-46,-46) scale(1,1)"><path fill="none" stroke="#000000" d="M 129.6725419666441 300.00487511501615 L 130 311 L 137.54317957022505 302.993724837895" stroke-miterlimit="10"/></g><g transform="translate(-46,-46) scale(1,1)"><path fill="none" stroke="#000000" d="M 208 232 L 240 311" stroke-miterlimit="10"/></g><g transform="translate(-46,-46) scale(1,1)"><path fill="none" stroke="#000000" d="M 232.2830089200524 303.16111942481524 L 240 311 L 240.08618888863762 300.0003376653883" stroke-miterlimit="10"/></g><g transform="translate(-46,-46) scale(1,1)"><path fill="none" stroke="#000000" d="M 538 311 L 639 161" stroke-miterlimit="10"/></g><g transform="translate(-46,-46) scale(1,1)"><path fill="none" stroke="#000000" d="M 636.8156645984666 171.7809405365955 L 639 161 L 629.8321654641943 167.07871778618548" stroke-miterlimit="10"/></g><g transform="translate(-46,-46) scale(1,1)"><path fill="none" stroke="#000000" d="M 544 344 L 623 290" stroke-miterlimit="10"/></g><g transform="translate(-46,-46) scale(1,1)"><path fill="none" stroke="#000000" d="M 616.9855362811679 299.2101154267931 L 623 290 L 612.2345968454172 292.2596669930096" stroke-miterlimit="10"/></g><g transform="translate(-46,-46) scale(1,1)"><path fill="none" stroke="#000000" d="M 544 390 L 623 405" stroke-miterlimit="10"/></g><g transform="translate(-46,-46) scale(1,1)"><path fill="none" stroke="#000000" d="M 612.2304619982416 407.2398775030529 L 623 405 L 613.8009540772746 398.96861922014637" stroke-miterlimit="10"/></g><g transform="translate(-46,-46) scale(1,1)"><path fill="none" stroke="#000000" d="M 544 436 L 623 520" stroke-miterlimit="10"/></g><g transform="translate(-46,-46) scale(1,1)"><path fill="none" stroke="#000000" d="M 612.9711686399735 515.4808693809374 L 623 520 L 619.104053243756 509.713037432142" stroke-miterlimit="10"/></g><g transform="translate(-46,-46) scale(1,1)"><path fill="none" stroke="#000000" d="M 321 380 L 439 380" stroke-miterlimit="10"/></g><g transform="translate(-46,-46) scale(1,1)"><path fill="#000000" stroke="none" d="M 428.83732514237585 384.209517756016 L 439 380 L 428.83732514237585 375.790482243984 L 417 380"/></g><g transform="translate(-46,-46) scale(1,1)"><path fill="none" stroke="#000000" d="M 428.83732514237585 384.209517756016 L 439 380 L 428.83732514237585 375.790482243984 L 417 380 L 428.83732514237585 384.209517756016" stroke-miterlimit="10"/></g></g></svg>